<svg width="485" height="413" viewBox="0 0 485 413" fill="none" xmlns="http://www.w3.org/2000/svg">
<mask id="path-1-inside-1_4265_26" fill="white">
<path d="M208.642 20.2706C227.746 2.79749 257.028 2.79748 276.132 20.2706L314.467 55.3322C317.888 45.2421 327.439 37.9806 338.685 37.9806H366.807C380.926 37.9806 392.372 49.4267 392.372 63.546V126.586L475.016 202.175C495.1 220.545 482.104 254.011 454.886 254.011H423.904V387.379C423.904 401.499 412.458 412.944 398.338 412.944H86.4358C72.3163 412.944 60.8704 401.499 60.8703 387.379V254.011H29.8879C2.66954 254.011 -10.3265 220.545 9.75803 202.175L208.642 20.2706Z"/>
</mask>
<path d="M208.642 20.2706C227.746 2.79749 257.028 2.79748 276.132 20.2706L314.467 55.3322C317.888 45.2421 327.439 37.9806 338.685 37.9806H366.807C380.926 37.9806 392.372 49.4267 392.372 63.546V126.586L475.016 202.175C495.1 220.545 482.104 254.011 454.886 254.011H423.904V387.379C423.904 401.499 412.458 412.944 398.338 412.944H86.4358C72.3163 412.944 60.8704 401.499 60.8703 387.379V254.011H29.8879C2.66954 254.011 -10.3265 220.545 9.75803 202.175L208.642 20.2706Z" fill="#FAE458"/>
<path d="M208.642 20.2706L214.041 26.1739L214.041 26.1739L208.642 20.2706ZM276.132 20.2706L270.733 26.1739L270.733 26.1739L276.132 20.2706ZM314.467 55.3322L309.068 61.2354L318.109 69.5045L322.043 57.9011L314.467 55.3322ZM366.807 37.9806L366.807 29.9806H366.807V37.9806ZM392.372 63.546L400.372 63.546L400.372 63.5459L392.372 63.546ZM392.372 126.586H384.372V130.111L386.973 132.489L392.372 126.586ZM475.016 202.175L469.617 208.078L469.617 208.078L475.016 202.175ZM454.886 254.011L454.886 262.011L454.886 262.011L454.886 254.011ZM423.904 254.011V246.011H415.904V254.011H423.904ZM423.904 387.379L431.904 387.379V387.379H423.904ZM398.338 412.944L398.338 420.944L398.338 420.944L398.338 412.944ZM86.4358 412.944L86.4357 420.944H86.4358V412.944ZM60.8703 387.379L52.8703 387.379L52.8703 387.379L60.8703 387.379ZM60.8703 254.011H68.8703V246.011H60.8703V254.011ZM9.75803 202.175L4.35879 196.272L4.35878 196.272L9.75803 202.175ZM208.642 20.2706L214.041 26.1739C230.089 11.4964 254.685 11.4964 270.733 26.1739L276.132 20.2706L281.531 14.3674C259.371 -5.90144 225.403 -5.90144 203.243 14.3674L208.642 20.2706ZM276.132 20.2706L270.733 26.1739L309.068 61.2354L314.467 55.3322L319.866 49.4289L281.531 14.3674L276.132 20.2706ZM314.467 55.3322L322.043 57.9011C324.397 50.959 330.97 45.9806 338.685 45.9806V37.9806V29.9806C323.907 29.9806 311.379 39.5253 306.891 52.7632L314.467 55.3322ZM338.685 37.9806V45.9806H366.807V37.9806V29.9806H338.685V37.9806ZM366.807 37.9806L366.807 45.9806C376.508 45.9806 384.372 53.8449 384.372 63.5462L392.372 63.546L400.372 63.5459C400.372 45.0085 385.345 29.9807 366.807 29.9806L366.807 37.9806ZM392.372 63.546H384.372V126.586H392.372H400.372V63.546H392.372ZM392.372 126.586L386.973 132.489L469.617 208.078L475.016 202.175L480.415 196.272L397.772 120.683L392.372 126.586ZM475.016 202.175L469.617 208.078C484.314 221.521 474.804 246.011 454.886 246.011L454.886 254.011L454.886 262.011C489.405 262.011 505.886 219.569 480.415 196.272L475.016 202.175ZM454.886 254.011V246.011H423.904V254.011V262.011H454.886V254.011ZM423.904 254.011H415.904V387.379H423.904H431.904V254.011H423.904ZM423.904 387.379L415.904 387.379C415.904 397.08 408.039 404.944 398.338 404.944L398.338 412.944L398.338 420.944C416.876 420.944 431.904 405.917 431.904 387.379L423.904 387.379ZM398.338 412.944V404.944H86.4358V412.944V420.944H398.338V412.944ZM86.4358 412.944L86.4358 404.944C76.7345 404.944 68.8703 397.08 68.8703 387.379L60.8703 387.379L52.8703 387.379C52.8704 405.917 67.8981 420.944 86.4357 420.944L86.4358 412.944ZM60.8703 387.379H68.8703V254.011H60.8703H52.8703V387.379H60.8703ZM60.8703 254.011V246.011H29.8879V254.011V262.011H60.8703V254.011ZM29.8879 254.011V246.011C9.97018 246.011 0.459597 221.521 15.1573 208.078L9.75803 202.175L4.35878 196.272C-21.1126 219.569 -4.6311 262.011 29.8879 262.011V254.011ZM9.75803 202.175L15.1573 208.078L214.041 26.1739L208.642 20.2706L203.243 14.3674L4.35879 196.272L9.75803 202.175Z" fill="#1E1E1E" mask="url(#path-1-inside-1_4265_26)"/>
<path d="M170.1 231.082C198.337 195.871 212.456 178.266 230.579 174.819C236.751 173.646 243.089 173.646 249.261 174.819C267.384 178.266 281.503 195.871 309.741 231.082L335.444 263.131C379.688 318.3 401.81 345.885 396.82 369.122C395.161 376.847 391.696 384.068 386.708 390.194C371.701 408.625 336.342 408.625 265.623 408.625H214.217C143.499 408.625 108.139 408.625 93.1329 390.194C88.1448 384.068 84.6795 376.847 83.0208 369.122C78.031 345.885 100.153 318.3 144.397 263.131L170.1 231.082Z" fill="#FFFFFD" stroke="#1E1E1E" stroke-width="8"/>
<rect x="175.357" y="303.139" width="120.991" height="103.707" fill="#143520" stroke="#1E1E1E" stroke-width="1.01673"/>
<path d="M241.887 199.424C250.266 201.975 250.266 201.975 255.561 207.584" stroke="#143520" stroke-width="8" stroke-linecap="round" stroke-linejoin="round"/>
<path d="M203.656 217.308C212.324 216.054 212.324 216.054 219.502 218.879" stroke="#143520" stroke-width="8" stroke-linecap="round" stroke-linejoin="round"/>
<path d="M286.226 271.653C277.743 273.832 277.743 273.832 270.303 271.795" stroke="#143520" stroke-width="8" stroke-linecap="round" stroke-linejoin="round"/>
<path d="M287.899 236.572C279.245 235.215 279.245 235.215 273.219 230.4" stroke="#143520" stroke-width="8" stroke-linecap="round" stroke-linejoin="round"/>
<path d="M310.258 292.463C317.669 287.794 317.669 287.794 325.376 287.459" stroke="#143520" stroke-width="8" stroke-linecap="round" stroke-linejoin="round"/>
<path d="M231.37 285.455C222.616 285.773 222.616 285.773 215.783 282.195" stroke="#143520" stroke-width="8" stroke-linecap="round" stroke-linejoin="round"/>
<path d="M221.368 246.563C230.045 245.368 230.045 245.368 237.204 248.242" stroke="#143520" stroke-width="8" stroke-linecap="round" stroke-linejoin="round"/>
<path d="M189.807 257.293C181.765 260.764 181.765 260.764 174.099 259.907" stroke="#143520" stroke-width="8" stroke-linecap="round" stroke-linejoin="round"/>
<path d="M146.62 290.377C155.133 288.547 155.133 288.547 162.887 291" stroke="#143520" stroke-width="8" stroke-linecap="round" stroke-linejoin="round"/>
</svg>
